<svg xmlns="http://www.w3.org/2000/svg" xmlns:xlink="http://www.w3.org/1999/xlink" width="500" zoomAndPan="magnify" viewBox="0 0 375 374.999991" height="500" preserveAspectRatio="xMidYMid meet" version="1.0"><defs><g/><clipPath id="badf632db1"><path d="M 166 7.191406 L 176 7.191406 L 176 14 L 166 14 Z M 166 7.191406 " clip-rule="nonzero"/></clipPath><clipPath id="6fc81fec30"><path d="M 8.503906 121 L 21 121 L 21 136 L 8.503906 136 Z M 8.503906 121 " clip-rule="nonzero"/></clipPath><clipPath id="94e4165f18"><path d="M 16 10 L 366.253906 10 L 366.253906 367.941406 L 16 367.941406 Z M 16 10 " clip-rule="nonzero"/></clipPath></defs><path fill="#fe715d" d="M 147.65625 12.136719 C 147.609375 11.683594 147.53125 11.203125 147.402344 10.667969 C 146.695312 11.460938 146.941406 11.875 147.65625 12.136719 Z M 147.65625 12.136719 " fill-opacity="1" fill-rule="nonzero"/><path fill="#fe715d" d="M 209.457031 10.5 C 210.964844 10.511719 212.476562 10.523438 212.476562 10.523438 C 212.757812 10.582031 212.945312 10.609375 213.058594 10.617188 C 213.101562 10.613281 213.144531 10.605469 213.1875 10.601562 C 213.195312 10.402344 207.394531 8.71875 207.226562 10.492188 C 207.28125 10.488281 207.328125 10.488281 207.386719 10.484375 C 207.949219 10.488281 208.703125 10.496094 209.457031 10.5 Z M 209.457031 10.5 " fill-opacity="1" fill-rule="nonzero"/><path fill="#fe715d" d="M 180.46875 11.703125 C 179.78125 11.414062 179.019531 11.191406 178.21875 11.050781 C 178.855469 11.261719 179.625 11.484375 180.46875 11.703125 Z M 180.46875 11.703125 " fill-opacity="1" fill-rule="nonzero"/><path fill="#fe715d" d="M 197.207031 13.570312 C 196.03125 13.234375 194.824219 12.980469 193.578125 12.792969 C 192.511719 12.644531 191.421875 12.554688 190.308594 12.542969 C 189.203125 12.578125 188.070312 12.691406 186.921875 12.890625 C 186.921875 12.890625 186.941406 12.921875 186.96875 12.972656 C 188.558594 13.199219 190.210938 13.378906 191.886719 13.480469 C 193.664062 13.644531 195.453125 13.652344 197.207031 13.570312 Z M 197.207031 13.570312 " fill-opacity="1" fill-rule="nonzero"/><g clip-path="url(#badf632db1)"><path fill="#fe715d" d="M 172.964844 12.035156 C 174.3125 11.738281 175.207031 11.539062 175.207031 11.539062 C 175.207031 11.539062 174.414062 10.445312 173.621094 9.355469 C 172.8125 8.273438 172.007812 7.1875 172.007812 7.1875 C 165.304688 7.292969 166.128906 9.121094 166.828125 11.003906 C 167.171875 11.941406 167.472656 12.902344 166.835938 13.671875 C 167.246094 13.5625 167.664062 13.453125 168.082031 13.34375 C 169.859375 12.867188 171.632812 12.390625 172.964844 12.035156 Z M 172.964844 12.035156 " fill-opacity="1" fill-rule="nonzero"/></g><path fill="#fe715d" d="M 166.824219 13.691406 C 166.828125 13.6875 166.828125 13.679688 166.835938 13.671875 C 165.5 14.035156 164.230469 14.402344 163.230469 14.746094 C 161.921875 15.167969 161.050781 15.445312 161.050781 15.445312 C 162.804688 15.265625 164.078125 15.011719 164.996094 14.699219 C 165.921875 14.410156 166.496094 14.085938 166.824219 13.691406 Z M 166.824219 13.691406 " fill-opacity="1" fill-rule="nonzero"/><path fill="#fe715d" d="M 279.386719 348.339844 C 278.992188 348.898438 278.414062 349.527344 277.761719 350.175781 C 278.449219 349.96875 279.113281 349.707031 279.746094 349.332031 Z M 279.386719 348.339844 " fill-opacity="1" fill-rule="nonzero"/><path fill="#fe715d" d="M 278.464844 345.851562 L 279.386719 348.34375 C 280.191406 347.121094 280.226562 346.191406 278.464844 345.851562 Z M 278.464844 345.851562 " fill-opacity="1" fill-rule="nonzero"/><path fill="#fe715d" d="M 255.722656 357.195312 C 253.898438 359.066406 251.964844 360.769531 251.964844 360.769531 C 253.636719 360.441406 256.429688 359.605469 258.324219 358.367188 C 260.230469 357.136719 261.199219 355.527344 259.328125 353.539062 C 259.332031 353.539062 257.527344 355.367188 255.722656 357.195312 Z M 255.722656 357.195312 " fill-opacity="1" fill-rule="nonzero"/><path fill="#fe715d" d="M 311.722656 294.542969 L 310.074219 293.414062 C 310.179688 294.128906 310.570312 294.628906 311.722656 294.542969 Z M 311.722656 294.542969 " fill-opacity="1" fill-rule="nonzero"/><path fill="#fe715d" d="M 31.640625 118.667969 C 31.503906 118.292969 31.296875 117.910156 30.988281 117.515625 C 30.988281 117.515625 31.242188 117.96875 31.640625 118.667969 Z M 31.640625 118.667969 " fill-opacity="1" fill-rule="nonzero"/><path fill="#fe715d" d="M 189.046875 361.671875 L 188.847656 361.390625 C 188.828125 361.503906 188.902344 361.597656 189.046875 361.671875 Z M 189.046875 361.671875 " fill-opacity="1" fill-rule="nonzero"/><path fill="#fe715d" d="M 283.777344 44.90625 C 284.246094 44.441406 284.5625 44.121094 284.5625 44.121094 C 284.171875 44.320312 283.933594 44.59375 283.777344 44.90625 Z M 283.777344 44.90625 " fill-opacity="1" fill-rule="nonzero"/><path fill="#fe715d" d="M 356.941406 230.964844 C 356.832031 230.976562 356.738281 230.976562 356.632812 230.984375 C 356.625 231.140625 356.621094 231.296875 356.613281 231.457031 C 356.722656 231.292969 356.824219 231.132812 356.941406 230.964844 Z M 356.941406 230.964844 " fill-opacity="1" fill-rule="nonzero"/><path fill="#fe715d" d="M 354.761719 246.132812 C 355.496094 241.699219 356.28125 236.332031 356.605469 231.707031 C 356.609375 231.621094 356.613281 231.539062 356.617188 231.457031 C 355.046875 233.808594 354.347656 235.769531 354.289062 237.945312 C 354.230469 240.269531 354.605469 242.792969 354.761719 246.132812 Z M 354.761719 246.132812 " fill-opacity="1" fill-rule="nonzero"/><path fill="#fe715d" d="M 341.4375 282.347656 C 341.789062 282.636719 342.1875 282.921875 342.652344 283.207031 C 342.59375 282.148438 342.125 282.027344 341.4375 282.347656 Z M 341.4375 282.347656 " fill-opacity="1" fill-rule="nonzero"/><path fill="#fe715d" d="M 331.414062 280.742188 C 331.414062 280.742188 332.644531 279.011719 333.8125 277.234375 C 334.9375 275.425781 336.0625 273.621094 336.0625 273.621094 C 337.542969 275.679688 336.632812 278.160156 335.53125 280.351562 C 334.449219 282.5625 333.402344 284.59375 334.890625 286.160156 C 336.695312 286.707031 339.746094 283.140625 341.4375 282.351562 C 338.476562 279.941406 339.347656 277.527344 339.921875 275.566406 C 340.554688 273.375 340.742188 271.835938 334.710938 271.589844 C 334.441406 272.105469 334.175781 272.640625 333.921875 273.210938 C 333.035156 275.210938 332.25 277.601562 331.414062 280.742188 Z M 331.414062 280.742188 " fill-opacity="1" fill-rule="nonzero"/><path fill="#fe715d" d="M 340.871094 254.8125 C 340.566406 258.03125 339.988281 260.515625 339.285156 262.597656 C 338.734375 264.027344 338.128906 265.257812 337.507812 266.429688 C 338.179688 266.058594 338.886719 265.957031 339.613281 265.851562 C 341.492188 265.574219 343.636719 265.265625 345.140625 259.550781 C 345.140625 259.550781 344.078125 258.351562 343.015625 257.15625 C 341.941406 255.984375 340.871094 254.8125 340.871094 254.8125 Z M 340.871094 254.8125 " fill-opacity="1" fill-rule="nonzero"/><path fill="#fe715d" d="M 334.546875 271.582031 C 334.605469 271.582031 334.652344 271.585938 334.710938 271.589844 C 335.378906 270.300781 336.0625 269.144531 336.683594 267.957031 C 336.960938 267.453125 337.234375 266.945312 337.507812 266.429688 C 337.300781 266.542969 337.097656 266.679688 336.898438 266.855469 C 336.027344 267.59375 335.355469 268.992188 334.546875 271.582031 Z M 334.546875 271.582031 " fill-opacity="1" fill-rule="nonzero"/><path fill="#fe715d" d="M 310.988281 312.222656 C 311.746094 311.414062 312.464844 310.535156 313.140625 309.582031 C 313.140625 309.582031 313.101562 309.570312 313.046875 309.558594 C 311.765625 310.519531 310.46875 311.5625 309.210938 312.675781 C 307.835938 313.816406 306.566406 315.078125 305.386719 316.375 C 306.453125 315.777344 307.488281 315.105469 308.5 314.355469 C 309.359375 313.707031 310.191406 313 310.988281 312.222656 Z M 310.988281 312.222656 " fill-opacity="1" fill-rule="nonzero"/><path fill="#fe715d" d="M 318.542969 305.859375 C 319.230469 305.574219 319.929688 305.195312 320.59375 304.730469 C 319.992188 305.027344 319.296875 305.414062 318.542969 305.859375 Z M 318.542969 305.859375 " fill-opacity="1" fill-rule="nonzero"/><path fill="#fe715d" d="M 315.238281 306.359375 C 313.792969 306.054688 313.136719 304.925781 313.929688 302.5625 C 313.929688 302.5625 315.5625 302.519531 317.195312 302.476562 C 318.84375 302.410156 320.492188 302.339844 320.492188 302.339844 C 320.492188 302.339844 320.476562 301.53125 320.453125 300.3125 C 320.441406 299.113281 320.351562 297.484375 320.226562 295.863281 C 320 292.632812 319.699219 289.507812 319.699219 289.507812 C 319.765625 291.796875 318.957031 293.691406 317.84375 295.300781 C 316.75 296.929688 315.183594 298.160156 313.953125 299.363281 C 311.480469 301.765625 309.789062 303.683594 313.125 307.222656 C 313.125 307.222656 311.835938 307.492188 310.550781 307.765625 C 309.277344 308.019531 308.003906 308.273438 308.003906 308.273438 C 308.003906 308.273438 309.285156 308.605469 310.5625 308.9375 C 311.660156 309.210938 312.746094 309.480469 313.050781 309.554688 C 315.019531 308.078125 316.921875 306.8125 318.542969 305.859375 C 317.335938 306.355469 316.160156 306.554688 315.238281 306.359375 Z M 315.238281 306.359375 " fill-opacity="1" fill-rule="nonzero"/><path fill="#fe715d" d="M 298.894531 327.207031 C 297.820312 328.265625 296.746094 329.324219 296.746094 329.324219 C 296.503906 329.484375 296.355469 329.59375 296.265625 329.667969 C 296.238281 329.699219 296.210938 329.738281 296.183594 329.769531 C 296.320312 329.914062 301.613281 327.003906 300.476562 325.632812 C 300.441406 325.671875 300.410156 325.707031 300.367188 325.75 C 299.96875 326.144531 299.429688 326.675781 298.894531 327.207031 Z M 298.894531 327.207031 " fill-opacity="1" fill-rule="nonzero"/><path fill="#fe715d" d="M 329.625 289.476562 C 328.511719 290.847656 327.789062 291.929688 327.359375 292.796875 C 326.910156 293.65625 326.738281 294.292969 326.785156 294.800781 C 326.785156 294.808594 326.789062 294.816406 326.789062 294.820312 C 327.480469 293.621094 328.117188 292.464844 328.578125 291.519531 C 329.203125 290.296875 329.625 289.476562 329.625 289.476562 Z M 329.625 289.476562 " fill-opacity="1" fill-rule="nonzero"/><path fill="#fe715d" d="M 328.679688 296.707031 C 327.773438 296.289062 326.882812 295.820312 326.789062 294.820312 C 326.578125 295.191406 326.359375 295.566406 326.140625 295.941406 C 325.222656 297.53125 324.300781 299.121094 323.613281 300.316406 C 322.871094 301.480469 322.378906 302.253906 322.378906 302.253906 C 322.378906 302.253906 323.710938 302.464844 325.042969 302.675781 C 326.382812 302.871094 327.71875 303.066406 327.71875 303.066406 C 332.382812 298.253906 330.507812 297.546875 328.679688 296.707031 Z M 328.679688 296.707031 " fill-opacity="1" fill-rule="nonzero"/><path fill="#fe715d" d="M 10.554688 137.761719 C 10.441406 137.09375 10.402344 136.238281 10.40625 135.316406 C 10.070312 135.949219 9.78125 136.605469 9.601562 137.320312 Z M 10.554688 137.761719 " fill-opacity="1" fill-rule="nonzero"/><path fill="#fe715d" d="M 12.96875 138.871094 L 10.554688 137.761719 C 10.847656 139.195312 11.480469 139.882812 12.96875 138.871094 Z M 12.96875 138.871094 " fill-opacity="1" fill-rule="nonzero"/><g clip-path="url(#6fc81fec30)"><path fill="#fe715d" d="M 18.160156 127.976562 C 20.46875 126.207031 21.378906 124.652344 17.835938 121.875 C 17.835938 121.875 16.757812 123.769531 15.679688 125.664062 C 15.140625 126.617188 14.605469 127.570312 14.203125 128.285156 C 13.796875 128.996094 13.542969 129.484375 13.542969 129.480469 C 10.234375 127.777344 8.585938 126.914062 11.441406 122.144531 C 9.503906 122.671875 9.210938 128.058594 8.816406 130.914062 L 9.996094 129.203125 C 10.503906 130.757812 10.382812 133.214844 10.40625 135.316406 C 12.21875 131.832031 15.800781 129.714844 18.160156 127.976562 Z M 18.160156 127.976562 " fill-opacity="1" fill-rule="nonzero"/></g><path fill="#fe715d" d="M 21.0625 119.90625 C 21.0625 119.90625 21.042969 117.339844 21.027344 114.769531 C 20.996094 112.160156 21.15625 109.585938 21.15625 109.585938 C 20.207031 110.996094 18.824219 113.566406 18.359375 115.78125 C 17.882812 118 18.332031 119.824219 21.0625 119.90625 Z M 21.0625 119.90625 " fill-opacity="1" fill-rule="nonzero"/><path fill="#fe715d" d="M 30.921875 112.40625 C 31.867188 110.964844 32.863281 109.679688 32.832031 108 C 30.460938 109.5 30.519531 108.558594 31.207031 106.917969 C 31.910156 105.292969 33.222656 102.984375 33.21875 101.71875 C 24.96875 108.132812 32.964844 106.972656 30.921875 112.40625 Z M 30.921875 112.40625 " fill-opacity="1" fill-rule="nonzero"/><path fill="#fe715d" d="M 30.921875 112.40625 C 30.492188 113.078125 30.082031 113.796875 29.847656 114.609375 C 30.382812 113.757812 30.683594 113.058594 30.921875 112.40625 Z M 30.921875 112.40625 " fill-opacity="1" fill-rule="nonzero"/><path fill="#fe715d" d="M 65.011719 64.460938 L 65.351562 64.519531 C 65.28125 64.421875 65.164062 64.40625 65.011719 64.460938 Z M 65.011719 64.460938 " fill-opacity="1" fill-rule="nonzero"/><g clip-path="url(#94e4165f18)"><path fill="#fe715d" d="M 365.214844 177.96875 C 364.457031 175.910156 363.589844 173.484375 363.007812 171.148438 C 362.433594 168.808594 362.316406 166.515625 363.339844 164.613281 L 359.707031 165.296875 C 359.6875 165.046875 359.660156 164.792969 359.640625 164.542969 C 359.328125 160.203125 359.128906 157.457031 359.152344 155.601562 C 359.121094 153.644531 359.234375 152.6875 359.414062 151.8125 C 359.582031 150.941406 359.78125 150.167969 359.816406 148.589844 C 359.832031 147.800781 359.804688 146.808594 359.710938 145.496094 C 359.566406 144.203125 359.34375 142.59375 358.996094 140.550781 C 358.996094 140.550781 357.625 139.753906 356.25 138.960938 C 355.863281 138.742188 355.488281 138.53125 355.136719 138.332031 C 354.902344 137.441406 354.667969 136.550781 354.417969 135.667969 C 354.441406 135.644531 354.457031 135.625 354.480469 135.601562 C 354.328125 135.160156 354.164062 134.714844 354.003906 134.273438 C 351.582031 126.027344 348.492188 118.070312 344.785156 110.464844 C 344.199219 108.539062 343.324219 106.582031 341.929688 104.746094 C 341.929688 104.746094 341.960938 104.863281 342.003906 105.039062 C 340.144531 101.585938 338.160156 98.207031 336.050781 94.917969 C 336.273438 94.730469 336.488281 94.503906 336.679688 94.191406 C 335.300781 92.15625 333.6875 90.382812 331.925781 88.820312 C 319.226562 70.972656 302.78125 55.972656 283.75 44.957031 C 283.757812 44.9375 283.769531 44.925781 283.777344 44.910156 C 283.765625 44.921875 283.75 44.9375 283.738281 44.949219 C 282.21875 44.070312 280.683594 43.222656 279.132812 42.394531 C 279.699219 41.761719 280.332031 41.109375 280.964844 40.453125 C 284.226562 37.09375 287.597656 33.484375 280.996094 30.683594 C 283.523438 33.773438 282.328125 36.492188 280.097656 38.082031 C 277.84375 39.695312 274.648438 40.101562 272.574219 38.609375 C 272.609375 38.742188 272.613281 38.914062 272.601562 39.109375 C 271.695312 38.679688 270.785156 38.253906 269.867188 37.839844 C 272.050781 37.101562 272.449219 35.714844 271.65625 34.296875 C 270.8125 32.773438 268.632812 31.199219 266.074219 30.695312 C 267.121094 31.1875 267.980469 31.769531 268.632812 32.414062 C 269.277344 33.085938 269.726562 33.796875 269.988281 34.488281 C 270.460938 35.734375 270.289062 36.898438 269.589844 37.722656 C 268.210938 37.105469 266.820312 36.511719 265.417969 35.933594 C 265.121094 35.714844 264.824219 35.503906 264.523438 35.28125 C 264.964844 35.101562 265.457031 34.777344 266.019531 34.238281 C 267.554688 31.675781 264.949219 28.824219 261.222656 26.09375 C 259.351562 24.773438 257.230469 23.421875 255.257812 22.113281 C 253.261719 20.875 251.429688 19.628906 250.191406 18.34375 C 247.523438 17.988281 246.0625 18.453125 245.027344 19.191406 C 243.980469 19.964844 243.316406 21.148438 242.183594 22.613281 C 241.910156 20.871094 240.542969 19.386719 239.109375 18.035156 C 237.675781 16.679688 236.207031 15.316406 235.8125 13.5625 C 232.863281 14.175781 230.402344 14.195312 228.148438 13.828125 C 225.898438 13.449219 223.859375 12.65625 221.785156 12.039062 C 219.714844 11.394531 217.628906 10.71875 215.347656 10.550781 C 214.648438 10.515625 213.925781 10.542969 213.191406 10.605469 C 213.191406 10.621094 213.148438 10.625 213.058594 10.621094 C 211.425781 10.769531 209.707031 11.15625 207.851562 11.960938 C 207.367188 11.3125 207.191406 10.839844 207.226562 10.492188 C 206.753906 10.507812 206.445312 10.519531 206.445312 10.519531 L 207.082031 11.238281 C 205.039062 12.4375 202.609375 13.09375 200.003906 13.363281 C 199.09375 13.460938 198.15625 13.523438 197.210938 13.570312 C 198.039062 13.804688 198.855469 14.070312 199.648438 14.394531 C 200.199219 14.632812 200.71875 14.898438 201.25 15.152344 C 199.757812 15.285156 197.882812 15.53125 196.003906 15.75 C 193.335938 16.03125 190.699219 16.441406 189.191406 16.691406 C 188.941406 16.269531 188.617188 15.71875 188.292969 15.164062 C 187.710938 14.199219 187.132812 13.242188 186.96875 12.96875 C 184.535156 12.625 182.292969 12.171875 180.46875 11.699219 C 181.671875 12.199219 182.644531 12.890625 183.15625 13.683594 C 183.53125 14.257812 183.648438 14.835938 183.457031 15.402344 C 183.046875 15.425781 182.640625 15.453125 182.230469 15.472656 C 181.363281 15.539062 180.496094 15.5625 179.628906 15.609375 C 179.433594 15.421875 179.234375 15.234375 179.035156 15.042969 C 177.816406 13.925781 176.605469 12.808594 176.605469 12.808594 C 176.605469 12.808594 176.042969 13.394531 175.199219 14.273438 C 174.761719 14.71875 174.257812 15.261719 173.726562 15.851562 C 170.753906 15.960938 167.816406 16.152344 164.945312 16.265625 C 161.226562 16.53125 157.632812 16.910156 154.308594 17.484375 C 151.546875 18.054688 148.980469 18.734375 146.683594 19.648438 C 147.679688 18.753906 149.058594 18.175781 150.421875 17.726562 C 152.746094 16.925781 154.925781 16.226562 154.984375 14.070312 C 154.09375 12.40625 149.410156 12.773438 147.65625 12.132812 C 148.046875 15.933594 145.726562 17.023438 143.933594 18.003906 C 142.121094 19 140.957031 19.886719 143.804688 23.351562 C 143.613281 23.945312 143.632812 24.4375 144.070312 24.726562 C 142.957031 25.058594 141.890625 25.34375 140.84375 25.671875 C 140.292969 25.832031 139.738281 26 139.179688 26.171875 C 139.40625 26.238281 139.648438 26.285156 139.914062 26.300781 C 140.964844 26.386719 142.308594 25.945312 144.40625 24.882812 C 145.117188 25.109375 146.429688 25.050781 148.707031 24.527344 C 146.015625 27.183594 142.519531 28.09375 138.699219 28.148438 C 137.25 28.238281 135.75 28.199219 134.253906 28.136719 C 134.578125 27.960938 134.902344 27.777344 135.214844 27.625 C 136.613281 27.007812 137.910156 26.566406 139.179688 26.171875 C 138.441406 25.964844 137.867188 25.535156 137.28125 25.09375 C 135.757812 23.964844 134.023438 22.664062 128.917969 25.640625 C 128.917969 25.640625 128.855469 26.683594 128.78125 27.921875 C 128.300781 27.917969 127.804688 27.894531 127.339844 27.90625 C 127.339844 27.90625 127.585938 27.492188 127.953125 26.871094 C 128.320312 26.242188 128.828125 25.429688 129.34375 24.632812 C 130.394531 23.019531 131.445312 21.40625 131.445312 21.40625 C 122.183594 24.582031 111.554688 26.734375 101.484375 30.367188 C 91.445312 33.9375 81.996094 38.878906 75.988281 45.957031 L 80.800781 47.367188 C 80 48.042969 79.191406 48.695312 78.371094 49.324219 C 77.566406 49.972656 76.765625 50.625 75.953125 51.242188 C 74.328125 52.484375 72.675781 53.652344 71.019531 54.761719 C 67.796875 57.097656 64.527344 59.183594 61.558594 61.285156 C 58.640625 63.445312 55.816406 65.40625 53.621094 67.535156 C 51.410156 69.648438 49.636719 71.730469 48.582031 73.863281 C 55.042969 71.90625 54.171875 74.097656 51.679688 77.132812 C 51.085938 77.921875 50.390625 78.761719 49.667969 79.617188 C 49.425781 79.726562 49.175781 79.820312 48.917969 79.898438 L 49.242188 80.121094 C 47.179688 82.550781 45.0625 84.988281 44.804688 86.359375 C 45.976562 85.421875 47.164062 84.378906 48.347656 83.269531 C 49.097656 82.554688 49.824219 81.789062 50.539062 81.007812 L 51.980469 81.992188 C 48.835938 85.625 46.917969 87.863281 45.507812 89.234375 C 44.152344 90.640625 43.386719 91.238281 42.644531 91.730469 C 41.910156 92.226562 41.21875 92.628906 40.078125 93.722656 C 39.511719 94.269531 38.824219 94.988281 37.96875 95.984375 C 37.152344 97 36.171875 98.296875 34.972656 99.988281 C 34.972656 99.988281 35.382812 101.519531 35.789062 103.054688 C 36 103.808594 36.210938 104.566406 36.367188 105.132812 C 36.542969 105.703125 36.660156 106.085938 36.660156 106.085938 C 36.996094 106.613281 37.382812 102.914062 38.355469 99.332031 C 39.261719 95.726562 41.058594 92.441406 43.425781 93.8125 C 43.242188 95.144531 42.976562 96.492188 42.652344 97.851562 C 42.351562 99.222656 42.035156 100.628906 41.65625 102.035156 C 41.285156 103.445312 40.878906 104.867188 40.457031 106.300781 C 40.046875 107.738281 39.703125 109.214844 39.328125 110.679688 C 38.960938 112.152344 38.601562 113.628906 38.28125 115.101562 C 37.980469 116.582031 37.777344 118.082031 37.597656 119.5625 C 37.421875 121.046875 37.308594 122.519531 37.273438 123.96875 C 37.253906 125.425781 37.382812 126.882812 37.578125 128.296875 C 37.578125 128.296875 35.820312 125.6875 34.167969 122.984375 C 33.195312 121.371094 32.246094 119.726562 31.640625 118.667969 C 32.40625 120.765625 30.648438 122.617188 28.464844 125.121094 C 27.152344 126.585938 25.640625 128.253906 24.328125 130.257812 C 23.105469 132.277344 22.097656 134.632812 21.722656 137.375 C 21.722656 137.375 23.007812 135.246094 24.289062 133.117188 C 24.9375 132.066406 25.554688 131.015625 26.074219 130.246094 C 26.589844 129.476562 26.933594 128.964844 26.933594 128.964844 C 28.390625 131.386719 28.910156 134.171875 28.722656 137.179688 C 28.496094 140.179688 27.871094 143.472656 27.101562 146.902344 C 26.902344 147.757812 26.707031 148.625 26.503906 149.492188 C 26.34375 150.371094 26.183594 151.25 26.023438 152.132812 C 25.714844 153.902344 25.445312 155.679688 25.265625 157.4375 C 24.953125 160.953125 25.210938 164.410156 26.222656 167.472656 C 26.503906 164.203125 26.808594 160.933594 29.441406 160.640625 C 29.671875 160.929688 29.847656 161.273438 29.996094 161.644531 C 29.984375 162.871094 30.0625 163.105469 30.34375 162.949219 C 30.550781 164.257812 30.457031 165.816406 30.175781 167.449219 C 29.746094 170.21875 28.9375 173.203125 28.097656 175.433594 C 27.753906 175.367188 27.433594 175.261719 27.125 175.132812 C 26.773438 172.9375 26.929688 170.78125 28.4375 167.800781 C 28.4375 167.800781 27.121094 168.015625 25.808594 168.230469 C 24.492188 168.464844 23.175781 168.695312 23.175781 168.695312 C 23.207031 169.199219 23.257812 169.695312 23.308594 170.191406 C 23.308594 170.1875 23.304688 170.183594 23.300781 170.175781 C 22.292969 167.402344 22.148438 163.890625 21.910156 160.519531 C 21.609375 153.792969 21.902344 147.59375 17.976562 148.550781 C 17.289062 152.113281 17.320312 155.652344 17.894531 159.027344 C 18.535156 162.410156 19.511719 165.621094 20.578125 168.59375 C 21.703125 171.570312 22.800781 174.316406 23.464844 176.839844 C 24.1875 179.359375 24.542969 181.664062 24.003906 183.8125 C 24.003906 183.8125 22.59375 182.113281 21.1875 180.414062 C 20.484375 179.539062 19.78125 178.671875 19.257812 178.015625 C 18.722656 177.355469 18.402344 176.910156 18.402344 176.910156 C 18.402344 176.910156 18.492188 177.34375 18.679688 177.988281 C 18.855469 178.632812 19.09375 179.488281 19.332031 180.347656 C 19.816406 182.046875 20.296875 183.75 20.296875 183.75 L 20.644531 181.730469 C 22.902344 183.132812 22.78125 185.277344 22.433594 187.789062 C 22.113281 190.292969 21.457031 193.183594 22.375 195.824219 C 22.375 195.824219 20.929688 195.042969 19.484375 194.265625 C 18.039062 193.457031 16.59375 192.652344 16.59375 192.652344 C 16.59375 192.652344 16.636719 193.300781 16.695312 194.269531 C 16.773438 195.238281 16.808594 196.53125 16.96875 197.820312 C 17.257812 200.402344 17.542969 202.976562 17.542969 202.976562 L 18.867188 201.484375 C 23.335938 217.636719 25.992188 231.328125 28.148438 246.734375 C 28.148438 246.734375 28.082031 246.164062 27.980469 245.304688 C 27.890625 244.445312 27.726562 243.320312 27.660156 242.164062 C 27.503906 239.875 27.34375 237.585938 27.34375 237.585938 C 28.640625 237.945312 30.378906 242.375 31.203125 246.425781 C 32.570312 245.234375 31.914062 242.25 31.597656 239.441406 C 31.285156 237.117188 31.035156 235.011719 31.832031 234.316406 C 32.550781 238.375 33.429688 242.40625 34.472656 246.40625 C 34.53125 247.347656 34.566406 248.273438 34.585938 249.207031 C 34.632812 251.351562 34.769531 253.476562 35.027344 256.003906 C 35.164062 257.261719 35.34375 258.617188 35.613281 260.101562 C 35.925781 261.566406 36.324219 263.160156 36.839844 264.925781 C 37.796875 265.039062 38.519531 263.460938 39.40625 261.882812 C 40.410156 264.535156 41.5 267.164062 42.65625 269.769531 C 41.777344 270.382812 40.410156 270.335938 38.023438 268.964844 C 42.035156 272.578125 42.171875 274.683594 42.433594 276.507812 C 42.695312 278.300781 43.175781 279.757812 47.707031 281.644531 C 46.929688 280.984375 46.359375 279.574219 45.804688 278.167969 C 45.925781 277.765625 46.082031 277.496094 46.253906 277.292969 C 48.152344 280.996094 50.203125 284.640625 52.421875 288.210938 C 52.472656 291.25 53.074219 294.296875 55.59375 298.257812 C 55.59375 298.257812 56.375 298.933594 57.546875 299.941406 C 58.726562 300.945312 60.375 302.203125 61.980469 303.476562 C 63.210938 304.472656 64.457031 305.421875 65.535156 306.222656 C 66.371094 307.210938 67.21875 308.1875 68.082031 309.160156 C 67.664062 309.496094 67.113281 309.589844 67.113281 309.589844 C 68.628906 310.8125 70.082031 312.101562 71.523438 313.414062 C 73.003906 314.683594 74.449219 315.992188 75.863281 317.320312 C 76.097656 317.546875 76.339844 317.757812 76.574219 317.980469 C 76.910156 318.304688 77.253906 318.628906 77.59375 318.953125 C 77.699219 319.683594 78.15625 320.394531 79.199219 320.972656 C 79.617188 321.1875 79.996094 321.355469 80.332031 321.476562 C 80.371094 321.511719 80.414062 321.546875 80.453125 321.582031 C 81.753906 322.757812 83.054688 323.917969 84.308594 325.082031 C 87.128906 327.523438 89.933594 329.792969 92.691406 331.734375 C 93.695312 332.394531 94.683594 333 95.664062 333.574219 C 99.644531 336.324219 103.722656 338.863281 107.886719 341.191406 C 107.886719 341.226562 107.890625 341.253906 107.886719 341.285156 C 108.234375 341.453125 108.601562 341.605469 108.949219 341.769531 C 110.71875 342.738281 112.496094 343.675781 114.292969 344.570312 C 112.84375 344.875 111.632812 345.128906 111.632812 345.128906 C 120.425781 349.4375 129.460938 355.429688 139.152344 359.980469 C 148.777344 364.554688 158.953125 367.742188 168.203125 366.980469 L 165.796875 362.582031 C 166.84375 362.671875 167.875 362.78125 168.898438 362.917969 C 169.929688 363.027344 170.953125 363.128906 171.96875 363.269531 C 173.996094 363.539062 175.988281 363.882812 177.945312 364.265625 C 181.871094 364.898438 185.660156 365.734375 189.25 366.34375 C 192.839844 366.878906 196.222656 367.492188 199.277344 367.539062 C 202.335938 367.609375 205.0625 367.390625 207.316406 366.625 C 201.363281 363.441406 203.53125 362.507812 207.441406 362.125 C 211.371094 361.566406 217.1875 361.582031 218.828125 360.460938 C 217.332031 360.296875 215.757812 360.191406 214.136719 360.140625 C 212.511719 360.105469 210.84375 360.167969 209.167969 360.289062 C 205.824219 360.554688 202.453125 360.78125 199.425781 361.175781 C 194.191406 361.695312 189.992188 362.125 189.050781 361.65625 L 189.414062 362.167969 C 189.414062 362.167969 188.046875 362.3125 185.984375 362.386719 C 183.921875 362.480469 181.15625 362.628906 178.375 362.707031 C 175.589844 362.691406 172.800781 362.679688 170.710938 362.664062 C 169.660156 362.660156 168.785156 362.640625 168.171875 362.59375 C 167.5625 362.5625 167.210938 362.542969 167.210938 362.542969 L 167.914062 359.855469 C 186.003906 361.570312 204.339844 360.070312 222 355.359375 C 222.003906 355.378906 222.007812 355.398438 222.011719 355.414062 C 222.011719 355.398438 222.011719 355.375 222.011719 355.355469 C 223.707031 354.90625 225.394531 354.417969 227.078125 353.90625 C 227.125 354.757812 227.136719 355.664062 227.152344 356.574219 C 227.222656 361.257812 227.390625 366.191406 234.039062 363.507812 C 230.066406 363.109375 228.988281 360.34375 229.441406 357.640625 C 229.898438 354.90625 231.867188 352.355469 234.390625 351.945312 C 234.269531 351.875 234.144531 351.757812 234.015625 351.613281 C 234.960938 351.273438 235.90625 350.933594 236.847656 350.574219 C 235.824219 352.640625 236.523438 353.902344 238.089844 354.347656 C 239.390625 354.71875 241.285156 354.535156 243.082031 353.753906 C 245.183594 354.328125 244.503906 354.910156 242.972656 355.535156 C 241.328125 356.1875 238.765625 356.890625 237.875 357.789062 C 246.816406 358.90625 243.238281 355.46875 245.476562 352.960938 C 247.070312 353.230469 249.082031 353.105469 251.265625 352.769531 C 253.527344 352.378906 255.980469 351.832031 258.300781 351.363281 C 260.203125 350.914062 262.019531 350.570312 263.609375 350.484375 C 262.996094 351.148438 262.753906 352.347656 263.003906 354.414062 C 263.003906 354.414062 265.105469 353.835938 267.210938 353.257812 C 268.261719 352.960938 269.316406 352.667969 270.105469 352.449219 C 270.898438 352.230469 271.417969 352.066406 271.417969 352.070312 C 272.554688 355.613281 273.109375 357.386719 267.71875 358.742188 C 269.457031 359.742188 273.476562 356.140625 275.773438 354.398438 L 273.734375 354.773438 C 274.472656 353.316406 276.292969 351.660156 277.761719 350.160156 C 274.015625 351.34375 269.988281 350.308594 267.09375 349.867188 C 266.453125 349.785156 265.871094 349.746094 265.355469 349.777344 C 266.867188 348.433594 267.417969 347.273438 267.601562 346.191406 C 267.792969 344.90625 267.425781 343.601562 267.191406 341.761719 C 268.617188 342.800781 270.632812 342.886719 272.601562 342.828125 C 274.574219 342.773438 276.578125 342.695312 278.09375 343.660156 C 279.75 341.140625 281.472656 339.386719 283.328125 338.050781 C 285.1875 336.730469 287.1875 335.847656 289.089844 334.8125 C 291.011719 333.808594 292.964844 332.808594 294.699219 331.316406 C 295.214844 330.847656 295.707031 330.316406 296.183594 329.753906 C 296.171875 329.742188 296.199219 329.707031 296.269531 329.652344 C 297.316406 328.390625 298.257812 326.902344 299 325.019531 C 299.800781 325.136719 300.257812 325.347656 300.480469 325.617188 C 300.800781 325.273438 301.011719 325.046875 301.011719 325.046875 L 300.050781 324.988281 C 300.648438 322.695312 301.902344 320.515625 303.554688 318.480469 C 304.132812 317.769531 304.75 317.058594 305.386719 316.359375 C 304.632812 316.78125 303.867188 317.167969 303.078125 317.5 C 299.199219 319.050781 295.3125 319.945312 291.464844 320.375 C 289.132812 320.671875 286.941406 320.90625 284.882812 321.171875 C 286.707031 319.527344 288.496094 317.824219 290.257812 316.074219 C 291.316406 316.8125 292.339844 317.53125 292.339844 317.53125 C 294 315.632812 295.414062 313.667969 296.691406 311.648438 C 297.917969 309.6875 298.941406 307.566406 299.976562 305.464844 C 303.359375 301.410156 306.5 297.226562 309.398438 292.925781 L 310.074219 293.402344 C 310 292.894531 310.992188 291.597656 312.597656 289.554688 C 313.410156 288.546875 314.402344 287.378906 315.542969 286.082031 C 316.632812 284.746094 317.851562 283.257812 319.171875 281.648438 C 319.210938 281.597656 319.253906 281.542969 319.292969 281.492188 C 330.59375 269.332031 339.945312 255.332031 346.835938 239.988281 C 346.882812 239.953125 346.933594 239.921875 346.984375 239.886719 C 347.773438 239.335938 348.546875 238.75 349.050781 238.875 C 349.542969 238.996094 349.785156 239.835938 349.242188 242.082031 C 349.3125 243.378906 350.050781 240.054688 350.132812 236.222656 C 350.207031 234.871094 350.1875 233.464844 350.074219 232.183594 C 350.523438 231.019531 350.953125 229.847656 351.375 228.667969 C 352.132812 230.285156 353.6875 231.1875 356.636719 230.96875 C 356.8125 226.660156 356.617188 223.113281 355.453125 221.765625 L 356.496094 222.550781 C 356.496094 222.550781 355.882812 220.507812 354.792969 217.769531 C 355.46875 215.308594 356.078125 212.816406 356.628906 210.304688 C 357.910156 212.574219 359.425781 213.941406 361.644531 212.78125 C 361.644531 212.78125 360.699219 210.789062 359.753906 208.792969 C 359.292969 207.808594 358.777344 206.832031 358.382812 206.105469 C 357.996094 205.378906 357.738281 204.894531 357.738281 204.894531 C 362.21875 207.609375 360.996094 197.246094 364.359375 199.179688 C 364.359375 199.179688 364.3125 198.839844 364.179688 198.25 C 364.054688 197.65625 363.878906 196.8125 363.667969 195.800781 C 363.207031 193.78125 362.738281 191.085938 362 188.433594 C 361.328125 185.90625 360.699219 183.410156 360.132812 181.488281 C 360.167969 180.203125 360.183594 178.914062 360.183594 177.621094 L 363.339844 176.761719 C 363.339844 176.761719 362.988281 178.128906 362.636719 179.496094 C 362.460938 180.175781 362.28125 180.851562 362.148438 181.359375 C 361.996094 181.867188 361.898438 182.203125 361.898438 182.203125 C 364.546875 183.4375 365.734375 183.441406 366.097656 182.578125 C 366.476562 181.730469 365.96875 180.027344 365.214844 177.96875 Z M 54.128906 113.625 C 54.621094 112.171875 55.105469 110.769531 55.449219 109.351562 C 55.53125 109.035156 55.597656 108.722656 55.671875 108.410156 C 56.90625 107.585938 58.039062 107.957031 58.976562 110.828125 C 58.976562 110.828125 57.179688 112.476562 55.382812 114.128906 C 54.441406 115.082031 53.507812 116.023438 52.847656 116.691406 C 53.335938 115.667969 53.777344 114.644531 54.128906 113.625 Z M 56.617188 104.183594 C 56.851562 103.183594 57.085938 102.183594 57.332031 101.226562 C 57.527344 100.484375 57.734375 99.769531 57.960938 99.066406 C 58.328125 101.453125 57.730469 103.011719 56.617188 104.183594 Z M 65.023438 106.285156 C 65.714844 106.214844 66.515625 106.339844 67.460938 106.734375 C 66.582031 107.734375 65.71875 108.742188 64.871094 109.757812 C 64.878906 109.132812 64.890625 108.5 64.929688 107.863281 C 64.964844 107.335938 64.992188 106.804688 65.023438 106.285156 Z M 43.742188 140.84375 C 43.992188 139.011719 43.960938 136.957031 43.851562 134.828125 C 43.785156 132.128906 43.542969 129.3125 43.4375 126.777344 C 43.433594 126.460938 43.441406 126.164062 43.445312 125.859375 C 43.816406 125.023438 44.222656 124.304688 44.648438 123.78125 C 44.246094 123.910156 43.863281 124.085938 43.488281 124.289062 C 43.5625 122.828125 43.730469 121.535156 44.070312 120.578125 C 44.34375 121.414062 45.542969 119.71875 47.011719 117.839844 C 48.464844 118.351562 49.953125 116.261719 51.449219 113.855469 C 52.074219 113.960938 52.410156 114.925781 52.261719 117.28125 C 52.058594 117.484375 51.941406 117.605469 51.941406 117.605469 C 52.042969 117.605469 52.136719 117.59375 52.238281 117.589844 C 52.230469 117.722656 52.222656 117.84375 52.207031 117.984375 C 52.285156 117.851562 52.335938 117.714844 52.410156 117.578125 C 54.925781 117.433594 56.550781 116.539062 57.796875 115.332031 C 59.136719 114.058594 59.96875 112.367188 60.75 110.765625 C 61.445312 109.34375 62.144531 108.019531 63.082031 107.179688 C 63.042969 107.285156 63.011719 107.375 62.972656 107.480469 C 62.554688 108.71875 62.179688 110.074219 61.773438 111.402344 C 61.410156 112.613281 61.054688 113.816406 60.710938 114.964844 C 60.074219 115.796875 59.445312 116.632812 58.828125 117.476562 C 58.648438 117.535156 58.492188 117.574219 58.371094 117.578125 C 58.359375 117.757812 58.386719 117.90625 58.421875 118.046875 C 53.011719 125.515625 48.363281 133.363281 44.472656 141.484375 C 44.207031 141.296875 43.96875 141.078125 43.742188 140.84375 Z M 357.066406 143.402344 C 358.847656 146.386719 359.882812 149.714844 357.859375 150.714844 C 357.316406 147.632812 356.675781 144.585938 355.949219 141.574219 C 356.324219 142.160156 356.703125 142.769531 357.066406 143.402344 Z M 264.410156 35.519531 C 264.316406 35.484375 264.21875 35.441406 264.121094 35.402344 C 264.164062 35.394531 264.203125 35.390625 264.246094 35.378906 C 264.304688 35.429688 264.355469 35.472656 264.410156 35.519531 Z M 260.609375 32.367188 C 260.425781 32.226562 260.238281 32.09375 260.054688 31.953125 C 260.054688 31.953125 260.285156 32.132812 260.648438 32.421875 C 260.769531 32.597656 260.890625 32.777344 261.007812 32.964844 C 261.398438 33.566406 261.785156 34.1875 262.226562 34.660156 C 260.429688 33.964844 258.621094 33.304688 256.792969 32.675781 C 258.527344 30.175781 259.625 30.96875 260.609375 32.367188 Z M 188.640625 16.785156 C 188.175781 16.863281 187.90625 16.914062 187.90625 16.914062 C 187.707031 16.667969 187.65625 16.398438 187.667969 16.136719 C 188.011719 16.363281 188.34375 16.589844 188.640625 16.785156 Z M 185.265625 14.570312 C 185.265625 14.570312 185.679688 14.839844 186.253906 15.210938 C 185.910156 15.242188 185.566406 15.277344 185.21875 15.300781 C 185.242188 15.070312 185.257812 14.828125 185.265625 14.570312 Z M 103.242188 35.449219 C 102.898438 35.730469 102.570312 36.007812 102.238281 36.285156 C 102.15625 36.207031 102.101562 36.132812 102.011719 36.050781 C 102.433594 35.804688 102.839844 35.613281 103.242188 35.449219 Z M 93.503906 42.902344 C 94.492188 42.597656 95.46875 42.332031 96.410156 42.082031 C 95.535156 43.21875 94.976562 44.234375 94.917969 45.054688 L 94.734375 43.761719 C 94.734375 43.761719 93.664062 45.75 92.453125 48.585938 C 91.226562 51.40625 90.070312 55.269531 89.550781 58.738281 C 90.355469 56.480469 91.972656 54.378906 93.785156 52.433594 C 95.671875 50.570312 97.746094 48.855469 99.421875 47.214844 C 102.074219 44.792969 103.808594 42.492188 102.441406 39.898438 C 103.480469 39.140625 103.742188 38.195312 102.796875 36.925781 C 104.375 36.4375 105.625 35.765625 106.71875 34.839844 C 108.453125 34.984375 109.863281 35.828125 110.796875 36.910156 C 110.191406 37.414062 109.542969 37.980469 108.902344 38.597656 C 106.058594 41.148438 103.390625 44.519531 104.027344 45.898438 C 105.324219 45.644531 106.527344 43.441406 108.078125 41.921875 C 109.597656 40.367188 111.296875 39.316406 113.175781 41.175781 C 117.289062 38.863281 115.679688 38.609375 113.785156 38.242188 C 113.925781 38.148438 114.046875 38.066406 114.203125 37.964844 C 115.554688 37.105469 117.355469 35.957031 119.160156 34.8125 C 120.96875 33.636719 122.832031 32.574219 124.246094 31.789062 C 125.652344 30.988281 126.597656 30.457031 126.597656 30.457031 C 129.0625 32.03125 127.332031 38.375 125.417969 38.574219 C 123.867188 39.023438 122.207031 39.941406 120.472656 40.964844 C 118.738281 41.996094 116.898438 43.058594 115.058594 44.082031 C 111.386719 46.152344 107.53125 47.523438 103.515625 46.433594 C 101.839844 49.078125 103.632812 49.867188 104.5625 50.808594 C 105.519531 51.78125 105.574219 52.757812 100.90625 55.984375 C 94.175781 57.03125 87.855469 60.054688 82.101562 63.808594 C 82.3125 61.652344 83.566406 58.792969 84.648438 56.003906 C 86.300781 51.964844 87.667969 48.125 84.183594 47.03125 C 84.183594 47.03125 83.445312 49.113281 82.703125 51.191406 C 82.558594 51.589844 82.421875 51.988281 82.292969 52.382812 C 80.550781 47.464844 87.214844 44.640625 93.503906 42.902344 Z M 77.265625 50.78125 C 78.011719 50.039062 78.648438 49.433594 79.109375 49.035156 C 79.5625 48.625 79.824219 48.394531 79.824219 48.394531 L 82.246094 52.527344 C 82.066406 53.085938 81.902344 53.613281 81.769531 54.058594 C 81.53125 54.847656 81.371094 55.371094 81.371094 55.371094 C 80.183594 50.527344 74.269531 57.707031 72.839844 55.160156 C 74.464844 53.550781 76.035156 51.996094 77.265625 50.78125 Z M 64.390625 64.355469 C 64.390625 64.355469 65.257812 63.285156 66.660156 61.773438 C 67.949219 60.363281 69.640625 58.492188 71.398438 56.617188 C 71.195312 56.925781 70.988281 57.246094 70.75 57.609375 C 69.648438 59.363281 68.074219 61.601562 66.71875 63.996094 C 65.339844 66.371094 63.945312 68.707031 62.972656 70.503906 C 62.03125 72.316406 61.398438 73.523438 61.398438 73.523438 L 58.324219 71.761719 C 58.839844 71.128906 59.335938 70.523438 59.816406 69.941406 C 59.859375 69.917969 59.90625 69.890625 59.949219 69.863281 C 60.554688 69.511719 61.160156 69.160156 61.613281 68.894531 C 62.078125 68.640625 62.386719 68.472656 62.386719 68.472656 C 62.238281 68.066406 62.097656 67.71875 61.957031 67.394531 C 63.378906 65.746094 64.457031 64.644531 65.011719 64.460938 Z M 34.804688 147.328125 C 37.570312 138.921875 36.851562 150.355469 40.109375 147.214844 C 40.875 146.820312 41.472656 146.300781 41.957031 145.683594 C 42 146.0625 42.019531 146.457031 42.015625 146.863281 C 40.855469 149.546875 39.785156 152.257812 38.785156 154.988281 C 37.761719 155.441406 36.847656 155.070312 36.148438 154.085938 C 35.660156 153.40625 35.273438 152.4375 35.015625 151.273438 C 34.773438 150.113281 34.722656 148.769531 34.804688 147.328125 Z M 140.660156 354.757812 C 141.371094 354.957031 142.085938 355.160156 142.800781 355.351562 C 142.800781 355.4375 142.789062 355.503906 142.792969 355.59375 C 141.980469 355.378906 141.277344 355.09375 140.660156 354.757812 Z M 156.769531 358.398438 C 160.101562 358.964844 163.453125 359.40625 166.8125 359.75 C 164.46875 361.335938 160.613281 360.242188 156.769531 358.398438 Z M 242.835938 353.421875 C 242.394531 353.496094 241.960938 353.550781 241.554688 353.554688 C 240.625 353.535156 239.804688 353.347656 239.128906 353.042969 C 237.914062 352.496094 237.210938 351.550781 237.125 350.476562 C 238.96875 349.773438 240.804688 349.03125 242.628906 348.25 C 242.324219 348.710938 242.136719 349.394531 242.109375 350.417969 C 242.382812 351.5 243.09375 352.203125 244.117188 352.621094 C 243.65625 352.816406 243.226562 353.074219 242.835938 353.421875 Z M 246.554688 347.773438 C 245.851562 347.625 245.140625 347.460938 244.496094 347.4375 C 246.257812 346.65625 248.003906 345.84375 249.738281 344.996094 C 250.359375 348.402344 248.542969 348.210938 246.554688 347.773438 Z M 246.554688 347.773438 " fill-opacity="1" fill-rule="nonzero"/></g><path fill="#fe715d" d="M 222.011719 355.425781 C 222.011719 356.089844 222.011719 356.539062 222.011719 356.539062 C 222.148438 356.121094 222.125 355.757812 222.011719 355.425781 Z M 222.011719 355.425781 " fill-opacity="1" fill-rule="nonzero"/><g fill="#000000" fill-opacity="1"><g transform="translate(51.315158, 207.620784)"><g><path d="M -12.214844 -37.902344 C -9.945312 -37.253906 -7.570312 -37.183594 -5.242188 -37.332031 C 2.324219 -37.671875 9.734375 -39.328125 17.128906 -41.035156 C 23.933594 -42.621094 30.671875 -44.527344 37.558594 -45.457031 C 40.402344 -45.824219 43.191406 -46.460938 46.035156 -45.480469 C 46.390625 -45.386719 46.78125 -45.410156 47.15625 -45.488281 C 47.480469 -45.554688 47.910156 -45.644531 48.003906 -46.003906 C 48.078125 -46.464844 47.667969 -46.550781 47.351562 -46.707031 C 46.421875 -47.132812 45.425781 -47.320312 44.390625 -47.441406 C 40.980469 -47.910156 37.519531 -47.527344 34.125 -47.101562 C 27.722656 -46.273438 21.515625 -44.53125 15.203125 -43.273438 C 8.246094 -41.882812 1.300781 -40.4375 -5.847656 -40.242188 C -6.863281 -40.253906 -8.25 -39.910156 -8.796875 -40.917969 C -9.488281 -42.066406 -8.480469 -43.175781 -7.84375 -44.152344 C -5.570312 -47.546875 -2.527344 -50.199219 0.65625 -52.71875 C 20.667969 -68.566406 42.289062 -81.832031 65.316406 -92.917969 C 69.042969 -94.703125 72.925781 -96.300781 77.019531 -97.152344 C 78.515625 -97.519531 79.035156 -97.179688 79.5 -95.757812 C 79.832031 -94.703125 79.988281 -93.667969 79.988281 -92.601562 C 79.949219 -89 79.105469 -85.507812 78.191406 -82.058594 C 75.71875 -72.894531 71.773438 -64.320312 67.828125 -55.746094 C 66.132812 -52.023438 63.988281 -48.824219 60.894531 -46.15625 C 58.417969 -44.011719 56.105469 -41.621094 54.1875 -38.976562 C 53.152344 -37.46875 53.375 -36.390625 54.96875 -35.484375 C 55.414062 -35.242188 55.898438 -35.0625 56.375 -34.9375 C 57.316406 -34.738281 57.382812 -34.414062 57 -33.550781 C 54.847656 -28.777344 52.683594 -24.054688 50.597656 -19.238281 C 48.839844 -15 46.964844 -10.789062 46.117188 -6.230469 C 45.648438 -3.886719 46.421875 -3.148438 48.847656 -3.371094 C 49.730469 -3.441406 50.4375 -3.816406 50.808594 -4.734375 C 50.988281 -5.222656 51.234375 -5.664062 51.425781 -6.097656 C 55.523438 -15.546875 60.015625 -24.738281 64.558594 -33.945312 C 64.835938 -34.507812 65.144531 -34.90625 65.855469 -35 C 74.214844 -36.683594 82.554688 -38.699219 91.136719 -39.308594 C 95.558594 -39.664062 100.003906 -40.421875 104.4375 -39.378906 C 104.902344 -39.308594 105.398438 -39.355469 105.828125 -39.445312 C 106.429688 -39.515625 107.140625 -39.605469 107.222656 -40.296875 C 107.304688 -40.988281 106.546875 -41.109375 106.0625 -41.289062 C 103.800781 -42.167969 101.476562 -42.527344 99.105469 -42.59375 C 90.9375 -42.972656 82.84375 -42.1875 74.78125 -41.238281 C 72.527344 -40.996094 70.257812 -40.578125 67.691406 -40.214844 C 69 -42.5625 69.640625 -44.886719 71.296875 -46.636719 C 84.792969 -60.34375 98.222656 -74.09375 112.792969 -86.679688 C 119.304688 -92.359375 125.753906 -98.082031 132.703125 -103.292969 C 133.089844 -103.597656 133.851562 -103.703125 133.707031 -104.402344 C 133.550781 -105.15625 132.792969 -105.277344 132.199219 -105.4375 C 130.320312 -105.832031 128.554688 -105.40625 126.867188 -104.605469 C 122.796875 -102.578125 119.117188 -100.015625 115.535156 -97.25 C 104.007812 -88.390625 93.453125 -78.382812 82.984375 -68.226562 C 81.859375 -67.148438 80.789062 -66.085938 79.632812 -64.886719 C 79.578125 -65.15625 79.511719 -65.199219 79.554688 -65.265625 C 79.648438 -65.621094 79.796875 -65.988281 79.945312 -66.359375 C 82.496094 -72.730469 84.6875 -79.199219 86.035156 -85.941406 C 86.546875 -88.347656 86.816406 -90.820312 86.636719 -93.3125 C 86.414062 -96.804688 84.671875 -98.96875 81.234375 -99.828125 C 78.523438 -100.441406 75.808594 -100.269531 73.136719 -99.601562 C 67.085938 -98.171875 61.421875 -95.703125 55.929688 -92.929688 C 36.507812 -83.15625 18.195312 -71.535156 0.542969 -58.929688 C -4.5 -55.351562 -9.390625 -51.582031 -13.472656 -46.910156 C -14.519531 -45.738281 -15.503906 -44.523438 -16.019531 -42.953125 C -16.578125 -41.320312 -16.148438 -40.0625 -14.757812 -39.058594 C -13.980469 -38.546875 -13.113281 -38.167969 -12.214844 -37.902344 Z M -12.214844 -37.902344 "/></g></g></g><g fill="#000000" fill-opacity="1"><g transform="translate(175.689769, 181.730284)"><g><path d="M 3.449219 -19.59375 C 5.371094 -20.890625 7.007812 -22.46875 8.621094 -24.152344 C 13.683594 -29.53125 18.472656 -35.136719 23.726562 -40.386719 C 24.101562 -40.746094 24.765625 -41.050781 24.578125 -41.6875 C 24.367188 -42.429688 23.601562 -42.605469 22.941406 -42.808594 C 22.292969 -42.953125 21.710938 -42.777344 21.089844 -42.535156 C 19.453125 -41.746094 18.050781 -40.664062 16.65625 -39.53125 C 11.878906 -35.503906 7.121094 -31.367188 2.289062 -27.328125 C 1.816406 -26.894531 1.335938 -26.511719 0.660156 -25.976562 C 0.71875 -26.777344 0.671875 -27.273438 0.730469 -27.792969 C 1.09375 -31.179688 1.445312 -34.625 1.792969 -38.066406 C 2.0625 -40.820312 1.441406 -41.644531 -1.195312 -42.445312 C -3.226562 -43.035156 -4.003906 -42.703125 -4.785156 -40.800781 C -6.964844 -35.625 -7.753906 -30.238281 -7.28125 -24.71875 C -6.929688 -19.792969 -0.703125 -16.875 3.449219 -19.59375 Z M 6.351562 -56.375 C 5.933594 -56.230469 5.449219 -56.132812 5.03125 -55.988281 C 2.136719 -55.046875 -0.429688 -53.613281 -2.714844 -51.625 C -3.238281 -51.175781 -3.902344 -50.589844 -3.378906 -49.6875 C -2.492188 -48.128906 0.609375 -47.539062 1.992188 -48.726562 C 4.5625 -50.945312 7.15625 -53.058594 10.242188 -54.433594 C 11.015625 -54.761719 10.925781 -55.191406 10.382812 -55.640625 C 9.210938 -56.6875 7.816406 -56.90625 6.351562 -56.375 Z M 6.351562 -56.375 "/></g></g></g><g fill="#000000" fill-opacity="1"><g transform="translate(202.179951, 176.215943)"><g><path d="M 16.371094 -42.789062 C 16.09375 -42.785156 15.824219 -42.730469 15.617188 -42.632812 C 13.984375 -41.839844 12.335938 -41.945312 10.660156 -42.441406 C 8.429688 -43.15625 6.460938 -42.632812 4.78125 -40.992188 C 4.210938 -40.480469 3.65625 -39.917969 2.808594 -39.121094 C 3.191406 -40.269531 3.410156 -41.101562 3.640625 -41.878906 C 4.136719 -43.554688 3.75 -44.316406 2.074219 -45.09375 C 0.015625 -46.066406 -1.246094 -45.917969 -2.183594 -44.488281 C -3.132812 -43.109375 -3.875 -41.550781 -4.5625 -40.003906 C -7.007812 -34.214844 -9.28125 -28.402344 -10.238281 -22.191406 C -10.71875 -19.117188 -9.425781 -17.476562 -6.292969 -17.003906 C -5.136719 -16.851562 -4.351562 -17.125 -3.820312 -18.359375 C -2.171875 -22.582031 -0.261719 -26.628906 2.132812 -30.5 C 3.933594 -33.457031 5.746094 -36.363281 8.28125 -38.746094 C 9.503906 -39.898438 10.769531 -40.554688 12.566406 -40.027344 C 14.109375 -39.621094 15.726562 -39.675781 17.101562 -40.636719 C 17.539062 -40.953125 18.390625 -41.1875 18.191406 -41.875 C 17.9375 -42.550781 17.105469 -42.773438 16.371094 -42.789062 Z M 16.371094 -42.789062 "/></g></g></g><g fill="#000000" fill-opacity="1"><g transform="translate(229.90849, 170.443818)"><g><path d="M 3.449219 -19.59375 C 5.371094 -20.890625 7.007812 -22.46875 8.621094 -24.152344 C 13.683594 -29.53125 18.472656 -35.136719 23.726562 -40.386719 C 24.101562 -40.746094 24.765625 -41.050781 24.578125 -41.6875 C 24.367188 -42.429688 23.601562 -42.605469 22.941406 -42.808594 C 22.292969 -42.953125 21.710938 -42.777344 21.089844 -42.535156 C 19.453125 -41.746094 18.050781 -40.664062 16.65625 -39.53125 C 11.878906 -35.503906 7.121094 -31.367188 2.289062 -27.328125 C 1.816406 -26.894531 1.335938 -26.511719 0.660156 -25.976562 C 0.71875 -26.777344 0.671875 -27.273438 0.730469 -27.792969 C 1.09375 -31.179688 1.445312 -34.625 1.792969 -38.066406 C 2.0625 -40.820312 1.441406 -41.644531 -1.195312 -42.445312 C -3.226562 -43.035156 -4.003906 -42.703125 -4.785156 -40.800781 C -6.964844 -35.625 -7.753906 -30.238281 -7.28125 -24.71875 C -6.929688 -19.792969 -0.703125 -16.875 3.449219 -19.59375 Z M 6.351562 -56.375 C 5.933594 -56.230469 5.449219 -56.132812 5.03125 -55.988281 C 2.136719 -55.046875 -0.429688 -53.613281 -2.714844 -51.625 C -3.238281 -51.175781 -3.902344 -50.589844 -3.378906 -49.6875 C -2.492188 -48.128906 0.609375 -47.539062 1.992188 -48.726562 C 4.5625 -50.945312 7.15625 -53.058594 10.242188 -54.433594 C 11.015625 -54.761719 10.925781 -55.191406 10.382812 -55.640625 C 9.210938 -56.6875 7.816406 -56.90625 6.351562 -56.375 Z M 6.351562 -56.375 "/></g></g></g><g fill="#000000" fill-opacity="1"><g transform="translate(256.398683, 164.929475)"><g><path d="M 0.0078125 -3.203125 C 1.40625 -3.496094 2.609375 -4.476562 3.785156 -5.5625 C 5.980469 -7.707031 7.835938 -10.113281 9.609375 -12.671875 C 15.261719 -20.871094 21.164062 -28.953125 27.464844 -36.726562 C 28.40625 -37.878906 28.183594 -38.394531 26.714844 -38.707031 C 26.066406 -38.851562 25.464844 -38.78125 24.875 -38.378906 C 24.078125 -37.875 23.308594 -37.265625 22.613281 -36.558594 C 17.796875 -31.90625 13.660156 -26.664062 9.332031 -21.546875 C 5.828125 -17.335938 2.671875 -12.800781 -1.117188 -8.867188 C -1.492188 -8.507812 -1.796875 -7.828125 -2.273438 -7.953125 C -2.8125 -8.121094 -2.625 -8.835938 -2.726562 -9.320312 C -3.242188 -13.144531 -2.785156 -16.890625 -2.101562 -20.628906 C 0.292969 -33.9375 3.9375 -46.941406 7.445312 -60.03125 C 8.199219 -62.882812 8.953125 -65.738281 9.699219 -68.644531 C 9.800781 -69.226562 9.957031 -69.820312 9.566406 -70.359375 C 8.234375 -72.160156 5.273438 -71.824219 4.339844 -69.832031 C 4.042969 -69.097656 3.757812 -68.304688 3.460938 -67.570312 C 0.90625 -60.410156 -1.332031 -53.089844 -3.292969 -45.773438 C -5.703125 -36.84375 -8.246094 -28 -9.648438 -18.832031 C -10.183594 -15.464844 -10.320312 -12.0625 -9.34375 -8.726562 C -8.191406 -4.8125 -4.148438 -2.394531 0.0078125 -3.203125 Z M 0.0078125 -3.203125 "/></g></g></g><g fill="#000000" fill-opacity="1"><g transform="translate(65.335659, 297.552366)"><g><path d="M 1.882812 2.304688 C 2.695312 1.066406 3.582031 -0.0703125 4.390625 -1.308594 C 12.910156 -14.089844 20.765625 -27.355469 29.292969 -40.085938 C 29.933594 -41.058594 30.714844 -41.898438 31.625 -42.648438 C 37.824219 -47.421875 44.148438 -52.109375 50.695312 -56.5625 C 53.792969 -58.667969 56.960938 -60.730469 60.125 -62.792969 C 60.191406 -62.75 60.269531 -62.65625 60.332031 -62.613281 C 59.691406 -60.570312 58.984375 -58.566406 58.34375 -56.523438 C 53.855469 -42.445312 50.691406 -27.96875 47.34375 -13.5625 C 46.863281 -11.550781 47.394531 -10.878906 49.21875 -10.75 C 50.246094 -10.683594 50.734375 -11.292969 51.183594 -12.113281 C 52.414062 -14.5625 53.214844 -17.199219 54.066406 -19.851562 C 59.226562 -35.8125 64.257812 -51.855469 69.773438 -67.722656 C 70.039062 -68.339844 70.25 -68.945312 70.957031 -69.320312 C 73.621094 -70.828125 76.351562 -72.292969 79.164062 -73.609375 C 79.628906 -73.820312 80.089844 -74.027344 80.660156 -73.980469 C 81.125 -73.90625 81.773438 -73.761719 81.921875 -74.410156 C 82.066406 -75.058594 81.546875 -75.398438 81.035156 -75.6875 C 79.597656 -76.398438 78.164062 -76.265625 76.6875 -75.792969 C 75.117188 -75.242188 73.613281 -74.644531 71.945312 -74.019531 C 72.144531 -74.679688 72.273438 -75.152344 72.398438 -75.628906 C 73.585938 -79.359375 74.710938 -83.132812 75.542969 -86.957031 C 76.136719 -90.058594 76.84375 -93.125 76.691406 -96.296875 C 76.625 -97.6875 75.960938 -98.730469 74.714844 -99.3125 C 71.402344 -100.925781 69.234375 -100.53125 67.050781 -98.617188 C 62.691406 -94.730469 59.144531 -90.171875 55.480469 -85.644531 C 45.40625 -73.324219 36.527344 -60.128906 27.449219 -47.058594 C 26.808594 -46.085938 26.027344 -45.246094 25.105469 -44.550781 C 20.433594 -40.824219 15.859375 -36.894531 11.566406 -32.6875 C 8.34375 -29.542969 5.328125 -26.21875 2.929688 -22.351562 C 1.867188 -20.722656 2.335938 -19.8125 4.3125 -19.492188 C 5.347656 -19.371094 6.125 -19.699219 6.820312 -20.40625 C 8.949219 -22.589844 11.089844 -24.722656 13.175781 -26.84375 C 13.59375 -27.265625 13.96875 -27.625 14.480469 -28.125 C 14.421875 -27.328125 14.046875 -26.96875 13.792969 -26.578125 C 9.742188 -20.398438 5.550781 -14.355469 1.8125 -8.019531 C 0.183594 -5.320312 -1.3125 -2.535156 -2.378906 0.4375 C -2.507812 0.914062 -2.847656 1.433594 -2.519531 1.929688 C -1.734375 3 1.042969 3.660156 1.882812 2.304688 Z M 68.933594 -92.265625 C 68.464844 -88.855469 67.703125 -85.773438 66.875 -82.738281 C 65.71875 -78.5625 64.339844 -74.402344 63 -70.300781 C 62.707031 -69.566406 62.351562 -69.101562 61.644531 -68.726562 C 54.210938 -64.765625 47.027344 -60.40625 40.054688 -55.582031 C 40.910156 -59.300781 63.464844 -88.039062 68.933594 -92.265625 Z M 68.933594 -92.265625 "/></g></g></g><g fill="#000000" fill-opacity="1"><g transform="translate(150.190369, 279.888546)"><g><path d="M 17.269531 -26.066406 C 19.574219 -25.253906 21.871094 -25.28125 24.015625 -26.570312 C 25.113281 -27.25 26.140625 -27.96875 27.148438 -28.796875 C 30.996094 -31.902344 34.683594 -35.25 38.226562 -38.742188 C 39.710938 -40.230469 41.144531 -41.710938 42.425781 -43.378906 C 43.132812 -44.3125 43.042969 -44.746094 41.9375 -45.1875 C 40.757812 -45.730469 39.636719 -45.722656 38.492188 -44.75 C 33.035156 -40.191406 27.527344 -35.617188 21.789062 -31.332031 C 21.308594 -30.949219 20.792969 -30.449219 20.039062 -30.292969 C 19.960938 -30.949219 19.902344 -31.5 19.898438 -32.0625 C 19.953125 -34.769531 20.007812 -37.476562 19.996094 -40.226562 C 19.949219 -43.140625 18.929688 -44.273438 16.121094 -44.8125 C 14.421875 -45.136719 13.058594 -44.683594 11.78125 -43.519531 C 10.078125 -41.984375 8.660156 -40.171875 7.304688 -38.316406 C 4.625 -34.726562 1.957031 -31.078125 -0.796875 -27.304688 C -0.972656 -27.886719 -0.71875 -28.277344 -0.632812 -28.6875 C 0.679688 -34.242188 2.351562 -39.699219 4.089844 -45.117188 C 4.46875 -46.265625 4.097656 -46.972656 3.113281 -47.386719 C 0.09375 -48.667969 -1.414062 -48.355469 -2.667969 -45.734375 C -5.753906 -39.25 -8.054688 -32.480469 -9.519531 -25.488281 C -9.957031 -23.542969 -10.113281 -21.601562 -9.925781 -19.617188 C -9.738281 -17.632812 -8.703125 -16.445312 -6.550781 -15.824219 C -4.519531 -15.238281 -2.488281 -14.929688 -0.941406 -16.9375 C 0.285156 -18.597656 1.328125 -20.332031 2.371094 -22.066406 C 5.695312 -27.421875 9.214844 -32.648438 13.132812 -37.5625 C 13.402344 -37.898438 13.734375 -38.195312 14.183594 -38.738281 C 14.097656 -35.628906 13.710938 -32.910156 14.066406 -30.117188 C 14.308594 -28.144531 15.320312 -26.785156 17.269531 -26.066406 Z M 17.269531 -26.066406 "/></g></g></g><g fill="#000000" fill-opacity="1"><g transform="translate(195.094444, 270.541068)"><g><path d="M 35.261719 -47.84375 C 35.054688 -48.304688 34.535156 -48.367188 34.070312 -48.4375 C 33.261719 -48.550781 32.714844 -47.929688 32.191406 -47.484375 C 26.660156 -43.019531 21.511719 -38.070312 16.230469 -33.207031 C 15.855469 -32.851562 15.480469 -32.492188 14.828125 -31.847656 C 14.984375 -32.722656 15.097656 -33.253906 15.226562 -33.730469 C 15.984375 -37.089844 16.757812 -40.394531 17.097656 -43.894531 C 17.226562 -45.15625 16.703125 -46.058594 15.609375 -46.730469 C 14.957031 -47.15625 14.167969 -47.441406 13.402344 -47.617188 C 11.457031 -48.054688 10.832031 -47.8125 9.886719 -46.15625 C 6.992188 -47.914062 4.960938 -48.222656 2.53125 -47.210938 C 1.039062 -46.5625 -0.164062 -45.582031 -1.277344 -44.449219 C -4.5 -41.308594 -6.679688 -37.484375 -8.339844 -33.316406 C -9.523438 -30.375 -10.117188 -27.273438 -9.84375 -24.074219 C -9.648438 -21.527344 -8.589844 -19.671875 -5.992188 -18.808594 C -3.453125 -17.933594 -1.429688 -18.464844 0.269531 -20.5625 C 0.539062 -20.898438 0.859375 -21.246094 1.179688 -21.59375 C 3.335938 -24.175781 5.171875 -26.972656 7.296875 -29.71875 C 7.007812 -28.140625 6.664062 -26.554688 6.4375 -24.933594 C 6.316406 -24.179688 5.996094 -23.550781 5.375 -23.027344 C 1.691406 -19.675781 -1.929688 -16.28125 -5.601562 -12.878906 C -11.578125 -7.308594 -17.898438 -2.058594 -23.277344 4.226562 C -24.996094 6.214844 -26.71875 8.203125 -27.722656 10.660156 C -28.476562 12.445312 -28.089844 13.488281 -26.539062 14.457031 C -25 15.371094 -23.347656 15.757812 -21.609375 15.734375 C -19.714844 15.675781 -17.71875 15.542969 -15.765625 15.472656 C -11.488281 15.253906 -7.171875 15.199219 -2.996094 14.21875 C 0.320312 13.414062 2.808594 11.605469 4.164062 8.402344 C 4.925781 6.671875 5.625 4.894531 6.140625 3.046875 C 8.691406 -6.023438 10.839844 -15.121094 12.980469 -24.273438 C 13.167969 -25.265625 13.582031 -25.972656 14.277344 -26.679688 C 17.667969 -30.082031 21.0625 -33.484375 24.453125 -36.886719 C 27.859375 -40.234375 31.328125 -43.542969 34.742188 -46.835938 C 35.019531 -47.117188 35.535156 -47.339844 35.261719 -47.84375 Z M -0.800781 5.054688 C -1.105469 6.015625 -1.585938 6.957031 -2.074219 7.847656 C -3.03125 9.730469 -4.609375 10.789062 -6.683594 11.335938 C -10.636719 12.324219 -14.679688 12.324219 -18.703125 12.433594 C -19.542969 12.4375 -20.332031 12.433594 -21.109375 12.484375 C -21.9375 12.542969 -21.992188 12.273438 -21.675781 11.644531 C -20.78125 10 -19.628906 8.523438 -18.421875 7.035156 C -13.347656 0.925781 -7.488281 -4.394531 -1.910156 -9.996094 C 0.175781 -12.113281 2.316406 -14.246094 4.457031 -16.375 C 2.925781 -9.148438 1.691406 -1.867188 -0.800781 5.054688 Z M 8.289062 -41.949219 C 7.492188 -40.65625 6.929688 -39.304688 6.128906 -38.015625 C 3.757812 -34.039062 1.144531 -30.125 -1.738281 -26.433594 C -2.046875 -26.03125 -2.410156 -25.621094 -2.777344 -25.207031 C -2.3125 -29.460938 -0.5625 -33.195312 1.4375 -36.8125 C 2.800781 -39.175781 4.238281 -41.441406 6.183594 -43.417969 C 6.613281 -43.789062 6.972656 -44.761719 7.820312 -44.210938 C 8.609375 -43.644531 8.875 -42.914062 8.289062 -41.949219 Z M 8.289062 -41.949219 "/></g></g></g><g fill="#000000" fill-opacity="1"><g transform="translate(231.706882, 262.919622)"><g><path d="M 9.351562 -32.789062 C 11.246094 -36.382812 12.21875 -40.351562 12.324219 -44.417969 C 12.371094 -46.898438 11.203125 -48.734375 8.855469 -49.761719 C 5.269531 -51.320312 1.996094 -50.582031 -0.457031 -47.542969 C -2.15625 -45.445312 -3.488281 -43.203125 -4.492188 -40.746094 C -6.707031 -35.457031 -8.605469 -30.003906 -8.742188 -24.191406 C -8.804688 -21.253906 -7.6875 -18.847656 -5.023438 -17.378906 C -2.183594 -15.890625 0.773438 -15.441406 3.894531 -16.371094 C 6.488281 -17.136719 8.6875 -18.71875 10.746094 -20.4375 C 18.902344 -27.136719 25.859375 -34.988281 33.363281 -42.390625 C 33.972656 -42.96875 33.734375 -43.3125 33.105469 -43.632812 C 31.957031 -44.289062 30.859375 -44.175781 29.6875 -43.59375 C 28.667969 -43.101562 27.734375 -42.457031 26.820312 -41.703125 C 21.269531 -37.066406 15.730469 -32.375 10.125 -27.722656 C 6.964844 -25.101562 3.867188 -22.433594 0.292969 -20.453125 C -0.964844 -19.742188 -1.210938 -19.859375 -1.570312 -21.300781 C -2.28125 -24.1875 -1.753906 -27.050781 -1.117188 -29.933594 C 5.039062 -27.058594 7.578125 -29.441406 9.351562 -32.789062 Z M 0.332031 -34.84375 C 1.636719 -39.101562 3.371094 -43.171875 6.246094 -46.632812 C 6.289062 -46.699219 6.449219 -46.734375 6.546875 -46.808594 C 6.863281 -46.371094 6.800781 -45.851562 6.785156 -45.398438 C 6.429688 -41.167969 5.21875 -37.265625 2.808594 -33.730469 C 2.554688 -33.339844 2.269531 -32.550781 1.738281 -32.945312 C 1.140625 -33.382812 0.0664062 -33.945312 0.332031 -34.84375 Z M 0.332031 -34.84375 "/></g></g></g><g fill="#000000" fill-opacity="1"><g transform="translate(264.604236, 256.071529)"><g><path d="M 0.0078125 -3.203125 C 1.40625 -3.496094 2.609375 -4.476562 3.785156 -5.5625 C 5.980469 -7.707031 7.835938 -10.113281 9.609375 -12.671875 C 15.261719 -20.871094 21.164062 -28.953125 27.464844 -36.726562 C 28.40625 -37.878906 28.183594 -38.394531 26.714844 -38.707031 C 26.066406 -38.851562 25.464844 -38.78125 24.875 -38.378906 C 24.078125 -37.875 23.308594 -37.265625 22.613281 -36.558594 C 17.796875 -31.90625 13.660156 -26.664062 9.332031 -21.546875 C 5.828125 -17.335938 2.671875 -12.800781 -1.117188 -8.867188 C -1.492188 -8.507812 -1.796875 -7.828125 -2.273438 -7.953125 C -2.8125 -8.121094 -2.625 -8.835938 -2.726562 -9.320312 C -3.242188 -13.144531 -2.785156 -16.890625 -2.101562 -20.628906 C 0.292969 -33.9375 3.9375 -46.941406 7.445312 -60.03125 C 8.199219 -62.882812 8.953125 -65.738281 9.699219 -68.644531 C 9.800781 -69.226562 9.957031 -69.820312 9.566406 -70.359375 C 8.234375 -72.160156 5.273438 -71.824219 4.339844 -69.832031 C 4.042969 -69.097656 3.757812 -68.304688 3.460938 -67.570312 C 0.90625 -60.410156 -1.332031 -53.089844 -3.292969 -45.773438 C -5.703125 -36.84375 -8.246094 -28 -9.648438 -18.832031 C -10.183594 -15.464844 -10.320312 -12.0625 -9.34375 -8.726562 C -8.191406 -4.8125 -4.148438 -2.394531 0.0078125 -3.203125 Z M 0.0078125 -3.203125 "/></g></g></g><g fill="#000000" fill-opacity="1"><g transform="translate(295.832486, 249.570885)"><g><path d="M 4.640625 -41.132812 C 5.261719 -42.722656 5.019531 -43.347656 3.578125 -44.335938 C 3.046875 -44.734375 2.484375 -45.007812 1.933594 -45.230469 C -0.210938 -46.078125 -1.113281 -45.832031 -2.230469 -43.914062 C -5.363281 -38.710938 -7.703125 -33.226562 -8.820312 -27.261719 C -9.328125 -24.574219 -9.480469 -21.789062 -8.691406 -19.089844 C -7.796875 -16.128906 -5.542969 -14.746094 -2.753906 -14.03125 C -0.253906 -13.371094 1.15625 -14.957031 2.542969 -16.652344 C 2.769531 -16.921875 2.992188 -17.195312 3.164062 -17.457031 C 7.292969 -23.257812 10.78125 -29.433594 14.078125 -35.738281 C 14.597656 -36.746094 14.988281 -37.835938 15.257812 -38.960938 C 15.664062 -40.785156 15.414062 -42.53125 14.300781 -44.097656 C 11.859375 -47.464844 8.320312 -48.808594 4.316406 -49.15625 C 3.808594 -49.160156 3.195312 -49.144531 3.039062 -48.550781 C 2.828125 -47.945312 3.292969 -47.59375 3.652344 -47.21875 C 4.488281 -46.4375 5.632812 -46.339844 6.660156 -45.992188 C 9.050781 -45.308594 10.121094 -43.675781 10.011719 -41.238281 C 9.894531 -39.640625 9.355469 -38.179688 8.695312 -36.753906 C 6.914062 -33.179688 4.855469 -29.828125 2.617188 -26.554688 C 1.433594 -24.960938 0.3125 -23.324219 -1.304688 -21.917969 C -1.074219 -22.976562 -0.890625 -23.972656 -0.59375 -24.988281 C 0.851562 -30.457031 2.773438 -35.800781 4.640625 -41.132812 Z M 4.640625 -41.132812 "/></g></g></g><g fill="#000000" fill-opacity="1"><g transform="translate(322.699567, 243.978087)"><g><path d="M 22.449219 -57.3125 C 21.617188 -57.8125 20.804688 -57.921875 20.003906 -57.195312 C 19.144531 -56.453125 18.429688 -55.574219 17.765625 -54.707031 C 13.339844 -48.730469 9.167969 -42.582031 5.390625 -36.175781 C 3.101562 -32.328125 0.996094 -28.40625 -1.335938 -24.496094 C -1.222656 -26.652344 -1.109375 -28.8125 -0.945312 -30.980469 C -0.738281 -34.84375 -0.261719 -38.761719 -0.292969 -42.691406 C -0.339844 -44.535156 -1.773438 -45.753906 -3.941406 -45.917969 C -5.484375 -46.046875 -5.761719 -45.765625 -6.164062 -43.378906 C -6.886719 -39.292969 -7.382812 -35.203125 -7.707031 -31.089844 C -8.019531 -26.925781 -8.398438 -22.800781 -7.480469 -18.667969 C -6.832031 -15.824219 -5.105469 -14.273438 -2.210938 -13.863281 C -0.9375 -13.679688 0.105469 -14.066406 0.832031 -15.171875 C 1.769531 -16.601562 2.628906 -18.128906 3.320312 -19.679688 C 8.839844 -32.289062 15.238281 -44.460938 22.707031 -56.070312 C 23.089844 -56.65625 22.960938 -57.023438 22.449219 -57.3125 Z M 22.449219 -57.3125 "/></g></g></g><g fill="#000000" fill-opacity="1"><g transform="translate(277.6598, 155.421485)"><g><path d="M 1.214844 0 L 3.949219 0 L 3.949219 -3.421875 L 7.671875 -3.421875 C 10.222656 -3.421875 11.679688 -4.878906 11.679688 -7.191406 C 11.679688 -9.488281 10.222656 -10.898438 7.671875 -10.898438 L 1.214844 -10.898438 Z M 3.949219 -8.664062 L 6.636719 -8.664062 C 8.257812 -8.664062 8.949219 -8.390625 8.949219 -7.144531 C 8.949219 -5.945312 8.152344 -5.660156 6.457031 -5.660156 L 3.949219 -5.660156 Z M 3.949219 -8.664062 "/></g></g></g><g fill="#000000" fill-opacity="1"><g transform="translate(289.982271, 155.421485)"><g><path d="M 7.160156 -11.183594 C 3.152344 -11.183594 0.628906 -8.902344 0.628906 -5.449219 C 0.628906 -1.996094 3.152344 0.285156 7.160156 0.285156 C 11.167969 0.285156 13.675781 -1.996094 13.675781 -5.449219 C 13.675781 -8.902344 11.167969 -11.183594 7.160156 -11.183594 Z M 7.160156 -8.949219 C 9.335938 -8.949219 10.675781 -7.640625 10.675781 -5.449219 C 10.675781 -3.273438 9.335938 -1.953125 7.160156 -1.953125 C 4.984375 -1.953125 3.632812 -3.273438 3.632812 -5.449219 C 3.632812 -7.625 4.984375 -8.949219 7.160156 -8.949219 Z M 7.160156 -8.949219 "/></g></g></g><g fill="#000000" fill-opacity="1"><g transform="translate(304.300953, 155.421485)"><g><path d="M 1.214844 0 L 3.949219 0 L 3.949219 -4.007812 L 7.101562 -4.007812 C 8.722656 -4.007812 9.007812 -3.4375 9.007812 -1.589844 L 9.007812 -0.839844 C 9.007812 -0.527344 9.082031 -0.238281 9.234375 0 L 12.296875 0 C 11.769531 -0.601562 11.769531 -1.578125 11.710938 -2.882812 C 11.648438 -4.128906 11.515625 -4.730469 10.34375 -5.210938 C 11.484375 -5.644531 12.144531 -6.679688 12.144531 -7.972656 C 12.144531 -10.027344 10.75 -10.898438 7.910156 -10.898438 L 1.214844 -10.898438 Z M 3.949219 -8.664062 L 6.921875 -8.664062 C 8.496094 -8.664062 9.261719 -8.570312 9.261719 -7.535156 C 9.261719 -6.515625 8.511719 -6.246094 7.039062 -6.246094 L 3.949219 -6.246094 Z M 3.949219 -8.664062 "/></g></g></g><g fill="#000000" fill-opacity="1"><g transform="translate(317.238803, 155.421485)"><g><path d="M -0.0898438 -10.898438 L -0.0898438 -8.664062 L 3.648438 -8.664062 L 3.648438 0 L 6.378906 0 L 6.378906 -8.664062 L 10.117188 -8.664062 L 10.117188 -10.898438 Z M -0.0898438 -10.898438 "/></g></g></g><g fill="#000000" fill-opacity="1"><g transform="translate(277.6598, 173.443756)"><g><path d="M 1.214844 -10.898438 L 1.214844 0 L 3.949219 0 L 3.949219 -4.367188 L 9.953125 -4.367188 L 9.953125 -6.605469 L 3.949219 -6.605469 L 3.949219 -8.664062 L 10.523438 -8.664062 L 10.523438 -10.898438 Z M 1.214844 -10.898438 "/></g></g></g><g fill="#000000" fill-opacity="1"><g transform="translate(288.571421, 173.443756)"><g><path d="M 7.160156 -11.183594 C 3.152344 -11.183594 0.628906 -8.902344 0.628906 -5.449219 C 0.628906 -1.996094 3.152344 0.285156 7.160156 0.285156 C 11.167969 0.285156 13.675781 -1.996094 13.675781 -5.449219 C 13.675781 -8.902344 11.167969 -11.183594 7.160156 -11.183594 Z M 7.160156 -8.949219 C 9.335938 -8.949219 10.675781 -7.640625 10.675781 -5.449219 C 10.675781 -3.273438 9.335938 -1.953125 7.160156 -1.953125 C 4.984375 -1.953125 3.632812 -3.273438 3.632812 -5.449219 C 3.632812 -7.625 4.984375 -8.949219 7.160156 -8.949219 Z M 7.160156 -8.949219 "/></g></g></g><g fill="#000000" fill-opacity="1"><g transform="translate(302.890103, 173.443756)"><g><path d="M 3.949219 -10.898438 L 1.214844 -10.898438 L 1.214844 0 L 9.546875 0 L 9.546875 -2.238281 L 3.949219 -2.238281 Z M 3.949219 -10.898438 "/></g></g></g><g fill="#000000" fill-opacity="1"><g transform="translate(312.901176, 173.443756)"><g><path d="M 3.992188 -10.898438 L 1.261719 -10.898438 L 1.261719 0 L 3.992188 0 Z M 3.992188 -10.898438 "/></g></g></g><g fill="#000000" fill-opacity="1"><g transform="translate(318.169369, 173.443756)"><g><path d="M 7.160156 -11.183594 C 3.152344 -11.183594 0.628906 -8.902344 0.628906 -5.449219 C 0.628906 -1.996094 3.152344 0.285156 7.160156 0.285156 C 11.167969 0.285156 13.675781 -1.996094 13.675781 -5.449219 C 13.675781 -8.902344 11.167969 -11.183594 7.160156 -11.183594 Z M 7.160156 -8.949219 C 9.335938 -8.949219 10.675781 -7.640625 10.675781 -5.449219 C 10.675781 -3.273438 9.335938 -1.953125 7.160156 -1.953125 C 4.984375 -1.953125 3.632812 -3.273438 3.632812 -5.449219 C 3.632812 -7.625 4.984375 -8.949219 7.160156 -8.949219 Z M 7.160156 -8.949219 "/></g></g></g></svg>