<svg xmlns="http://www.w3.org/2000/svg" xmlns:xlink="http://www.w3.org/1999/xlink" width="500" zoomAndPan="magnify" viewBox="0 0 375 374.999991" height="500" preserveAspectRatio="xMidYMid meet" version="1.0"><defs><clipPath id="f7848b3f4e"><path d="M 142 7.730469 L 233 7.730469 L 233 204 L 142 204 Z M 142 7.730469 " clip-rule="nonzero"/></clipPath></defs><path fill="#fe6e58" d="M 75.921875 339.390625 C 216.644531 362.460938 332.421875 328.988281 295.921875 312.351562 C 295.921875 312.351562 305.890625 320.65625 284.957031 327.074219 C 245.125 339.285156 119.15625 342.957031 84.183594 327.5625 C 71.613281 322.023438 95.207031 314.339844 102.605469 312.738281 C 110.34375 311.042969 114.773438 311.355469 114.773438 311.355469 C 100.75 301.386719 24.3125 330.921875 75.921875 339.390625 Z M 75.921875 339.390625 " fill-opacity="1" fill-rule="nonzero"/><path fill="#fe6e58" d="M 318.234375 330.503906 C 318.234375 330.503906 313.792969 342.019531 265.761719 351.171875 C 211.59375 361.480469 144.738281 360.277344 105.117188 353.667969 C 105.117188 353.652344 113.242188 360.457031 154.960938 363.160156 C 218.441406 367.277344 315.933594 360.886719 318.234375 330.503906 Z M 318.234375 330.503906 " fill-opacity="1" fill-rule="nonzero"/><path fill="#fe6e58" d="M 235.707031 253.59375 C 194.910156 261.539062 171.347656 261.273438 141.5 258.167969 C 118.441406 255.746094 133.535156 244.441406 133.535156 244.441406 C 73.828125 264.46875 166.769531 287.214844 250.191406 262.535156 C 241.335938 259.371094 235.707031 253.59375 235.707031 253.59375 Z M 235.707031 253.59375 " fill-opacity="1" fill-rule="nonzero"/><path fill="#fe6e58" d="M 263.382812 268.96875 C 263.085938 269.800781 262.0625 270.707031 262.0625 270.722656 C 350.398438 247.234375 317.921875 187.925781 275.683594 202.945312 C 271.972656 204.285156 270.023438 207.359375 270.023438 207.359375 C 270.023438 207.359375 272.371094 206.40625 277.585938 205.308594 C 298.949219 200.792969 329.527344 234.203125 263.382812 268.96875 Z M 263.382812 268.96875 " fill-opacity="1" fill-rule="nonzero"/><g clip-path="url(#f7848b3f4e)"><path fill="#f2941b" d="M 147.277344 121.042969 C 130.847656 146.015625 155.359375 172.832031 188.757812 203.332031 C 175.730469 173.558594 131.546875 147.484375 188.773438 101.773438 C 260.144531 44.78125 223.507812 7.730469 223.507812 7.730469 C 238.304688 66.589844 171.421875 84.359375 147.277344 121.042969 Z M 147.277344 121.042969 " fill-opacity="1" fill-rule="nonzero"/></g><path fill="#f2941b" d="M 267.675781 80.558594 C 267.675781 80.542969 146.996094 111.027344 204.640625 178.210938 C 221.652344 198.015625 200.167969 215.839844 200.167969 215.839844 C 200.167969 215.839844 243.34375 193.289062 223.507812 165.0625 C 204.984375 138.734375 190.78125 125.660156 267.675781 80.558594 Z M 267.675781 80.558594 " fill-opacity="1" fill-rule="nonzero"/><path fill="#fe6e58" d="M 141.992188 283.46875 C 87.792969 298.785156 174.957031 330.445312 243.980469 300.539062 C 232.691406 296.082031 224.578125 290.941406 224.578125 290.941406 C 193.808594 296.855469 179.53125 297.316406 151.585938 294.078125 C 128.515625 291.402344 141.992188 283.46875 141.992188 283.46875 Z M 141.992188 283.46875 " fill-opacity="1" fill-rule="nonzero"/><path fill="#fe6e58" d="M 247.546875 225.675781 C 254.320312 220.996094 263.679688 216.957031 263.679688 216.957031 C 263.679688 216.957031 237.058594 221.785156 210.539062 224.042969 C 178.09375 226.792969 143.253906 227.324219 125.78125 224.964844 C 84.390625 219.378906 148.46875 203.984375 148.46875 203.984375 C 148.46875 203.984375 123.582031 202.292969 93.007812 217.238281 C 56.800781 234.933594 182.503906 242.984375 247.546875 225.675781 Z M 247.546875 225.675781 " fill-opacity="1" fill-rule="nonzero"/></svg>