<svg xmlns="http://www.w3.org/2000/svg" xmlns:xlink="http://www.w3.org/1999/xlink" width="500" zoomAndPan="magnify" viewBox="0 0 375 374.999991" height="500" preserveAspectRatio="xMidYMid meet" version="1.0"><defs><clipPath id="0dd31ee23c"><path d="M 2.207031 75.628906 L 372.707031 75.628906 L 372.707031 299.128906 L 2.207031 299.128906 Z M 2.207031 75.628906 " clip-rule="nonzero"/></clipPath></defs><g clip-path="url(#0dd31ee23c)"><path fill="#fe6e58" d="M 89.648438 134.015625 L 159.542969 134.015625 L 159.542969 139.570312 L 96.054688 139.570312 L 96.054688 181.378906 L 155.757812 181.378906 L 155.757812 186.9375 L 96.054688 186.9375 L 96.054688 232.839844 L 160.269531 232.839844 L 160.269531 238.398438 L 89.648438 238.398438 Z M 165.804688 134.015625 L 173.230469 134.015625 L 206.140625 179.917969 L 239.777344 134.015625 L 285.527344 75.707031 L 210.363281 184.746094 L 249.097656 238.398438 L 241.375 238.398438 L 206.140625 189.566406 L 170.753906 238.398438 L 163.183594 238.398438 L 202.203125 184.746094 Z M 251.863281 139.570312 L 251.863281 134.015625 L 331.515625 134.015625 L 331.515625 139.570312 L 294.820312 139.570312 L 294.820312 238.398438 L 288.414062 238.398438 L 288.414062 139.570312 Z M 2.207031 134.015625 L 10.214844 134.015625 L 120.652344 299.273438 L 75.015625 238.402344 L 8.90625 141.910156 L 8.617188 238.402344 L 2.210938 238.402344 L 2.210938 134.015625 Z M 330.867188 231.171875 C 329.5625 231.171875 328.578125 230.148438 328.578125 228.839844 C 328.578125 227.53125 329.5625 226.515625 330.867188 226.515625 C 332.191406 226.515625 333.160156 227.53125 333.160156 228.839844 C 333.160156 230.148438 332.191406 231.171875 330.867188 231.171875 Z M 337.164062 225.046875 L 340.59375 225.046875 C 340.636719 226.90625 341.996094 228.152344 343.988281 228.152344 C 346.21875 228.152344 347.476562 226.8125 347.476562 224.300781 L 347.476562 208.386719 L 350.972656 208.386719 L 350.972656 224.316406 C 350.972656 228.839844 348.351562 231.445312 344.023438 231.445312 C 339.957031 231.445312 337.164062 228.917969 337.164062 225.046875 Z M 355.539062 224.84375 L 359 224.84375 C 359.289062 226.988281 361.378906 228.339844 364.390625 228.339844 C 367.191406 228.339844 369.25 226.890625 369.25 224.894531 C 369.25 223.179688 367.9375 222.144531 364.964844 221.441406 L 362.070312 220.742188 C 358 219.792969 356.148438 217.824219 356.148438 214.515625 C 356.148438 210.507812 359.417969 207.84375 364.328125 207.84375 C 368.894531 207.84375 372.222656 210.507812 372.425781 214.296875 L 369.03125 214.296875 C 368.707031 212.222656 366.894531 210.925781 364.277344 210.925781 C 361.519531 210.925781 359.679688 212.257812 359.679688 214.285156 C 359.679688 215.890625 360.867188 216.808594 363.796875 217.496094 L 366.273438 218.105469 C 370.882812 219.183594 372.789062 221.058594 372.789062 224.4375 C 372.789062 228.746094 369.449219 231.445312 364.125 231.445312 C 359.136719 231.445312 355.785156 228.875 355.539062 224.84375 Z M 355.539062 224.84375 " fill-opacity="1" fill-rule="nonzero"/></g></svg>